<svg width="25" height="24" viewBox="0 0 25 24" fill="none" xmlns="http://www.w3.org/2000/svg">
<mask id="mask0_33541_3806" style="mask-type:alpha" maskUnits="userSpaceOnUse" x="0" y="0" width="25" height="24">
<rect x="0.97998" width="24" height="24" fill="#D9D9D9"/>
</mask>
<g mask="url(#mask0_33541_3806)">
<path d="M12.98 22C11.5966 22 10.2966 21.7375 9.07998 21.2125C7.86331 20.6875 6.80498 19.975 5.90498 19.075C5.00498 18.175 4.29248 17.1167 3.76748 15.9C3.24248 14.6833 2.97998 13.3833 2.97998 12C2.97998 10.6167 3.24248 9.31667 3.76748 8.1C4.29248 6.88333 5.00498 5.825 5.90498 4.925C6.80498 4.025 7.86331 3.3125 9.07998 2.7875C10.2966 2.2625 11.5966 2 12.98 2C13.73 2 14.4591 2.07917 15.1675 2.2375C15.8758 2.39583 16.5466 2.625 17.18 2.925C17.1133 3.09167 17.0633 3.26667 17.03 3.45C16.9966 3.63333 16.98 3.81667 16.98 4C16.98 4.23333 17.005 4.45417 17.055 4.6625C17.105 4.87083 17.1716 5.06667 17.255 5.25C16.6383 4.86667 15.9716 4.5625 15.255 4.3375C14.5383 4.1125 13.78 4 12.98 4C10.7633 4 8.87581 4.77917 7.31748 6.3375C5.75915 7.89583 4.97998 9.78333 4.97998 12C4.97998 14.2167 5.75915 16.1042 7.31748 17.6625C8.87581 19.2208 10.7633 20 12.98 20C15.1966 20 17.0841 19.2208 18.6425 17.6625C20.2008 16.1042 20.98 14.2167 20.98 12C20.98 11.3333 20.9008 10.6917 20.7425 10.075C20.5841 9.45833 20.3633 8.875 20.08 8.325C20.3466 8.54167 20.6383 8.70833 20.955 8.825C21.2716 8.94167 21.6133 9 21.98 9C22.0633 9 22.1508 8.99583 22.2425 8.9875C22.3341 8.97917 22.4216 8.96667 22.505 8.95C22.655 9.43333 22.7716 9.92917 22.855 10.4375C22.9383 10.9458 22.98 11.4667 22.98 12C22.98 13.3833 22.7175 14.6833 22.1925 15.9C21.6675 17.1167 20.955 18.175 20.055 19.075C19.155 19.975 18.0966 20.6875 16.88 21.2125C15.6633 21.7375 14.3633 22 12.98 22ZM16.48 11C16.9133 11 17.2716 10.8583 17.555 10.575C17.8383 10.2917 17.98 9.93333 17.98 9.5C17.98 9.06667 17.8383 8.70833 17.555 8.425C17.2716 8.14167 16.9133 8 16.48 8C16.0466 8 15.6883 8.14167 15.405 8.425C15.1216 8.70833 14.98 9.06667 14.98 9.5C14.98 9.93333 15.1216 10.2917 15.405 10.575C15.6883 10.8583 16.0466 11 16.48 11ZM9.47998 11C9.91331 11 10.2716 10.8583 10.555 10.575C10.8383 10.2917 10.98 9.93333 10.98 9.5C10.98 9.06667 10.8383 8.70833 10.555 8.425C10.2716 8.14167 9.91331 8 9.47998 8C9.04665 8 8.68831 8.14167 8.40498 8.425C8.12165 8.70833 7.97998 9.06667 7.97998 9.5C7.97998 9.93333 8.12165 10.2917 8.40498 10.575C8.68831 10.8583 9.04665 11 9.47998 11ZM12.98 17.5C14.1633 17.5 15.2091 17.175 16.1175 16.525C17.0258 15.875 17.68 15.0333 18.08 14H7.87998C8.27998 15.0333 8.93415 15.875 9.84248 16.525C10.7508 17.175 11.7966 17.5 12.98 17.5ZM20.98 5H19.98C19.6966 5 19.4591 4.90417 19.2675 4.7125C19.0758 4.52083 18.98 4.28333 18.98 4C18.98 3.71667 19.0758 3.47917 19.2675 3.2875C19.4591 3.09583 19.6966 3 19.98 3H20.98V2C20.98 1.71667 21.0758 1.47917 21.2675 1.2875C21.4591 1.09583 21.6966 1 21.98 1C22.2633 1 22.5008 1.09583 22.6925 1.2875C22.8841 1.47917 22.98 1.71667 22.98 2V3H23.98C24.2633 3 24.5008 3.09583 24.6925 3.2875C24.8841 3.47917 24.98 3.71667 24.98 4C24.98 4.28333 24.8841 4.52083 24.6925 4.7125C24.5008 4.90417 24.2633 5 23.98 5H22.98V6C22.98 6.28333 22.8841 6.52083 22.6925 6.7125C22.5008 6.90417 22.2633 7 21.98 7C21.6966 7 21.4591 6.90417 21.2675 6.7125C21.0758 6.52083 20.98 6.28333 20.98 6V5Z" fill="black"/>
</g>
</svg>
